<?xml version="1.0" standalone="no"?><!DOCTYPE svg PUBLIC "-//W3C//DTD SVG 1.1//EN" "http://www.w3.org/Graphics/SVG/1.1/DTD/svg11.dtd"><svg t="1725877305716" class="icon" viewBox="0 0 1024 1024" version="1.1" xmlns="http://www.w3.org/2000/svg" p-id="10197" xmlns:xlink="http://www.w3.org/1999/xlink" width="128" height="128"><path d="M879.6672 331.3664H149.9648a25.6 25.6 0 1 0 0 51.2h55.7056v411.5968c0 60.2112 47.36 109.2608 105.5232 109.2608h402.2272c58.2144 0 105.5744-49.0496 105.5744-109.2608V382.5664h60.672a25.6 25.6 0 0 0 0-51.2zM768 794.1632c0 32-24.3712 58.0608-54.3744 58.0608h-402.432c-29.952 0-54.3232-26.0608-54.3232-58.0608V382.5664H768zM294.144 293.4272A25.6 25.6 0 0 0 327.68 279.3984a177.7152 177.7152 0 0 1 165.0176-111.0016h28.7744a177.664 177.664 0 0 1 165.4272 111.616 25.6 25.6 0 0 0 23.7568 16.0256 25.6 25.6 0 0 0 23.7056-34.9184 228.5568 228.5568 0 0 0-212.8896-143.6672h-28.7744A228.8128 228.8128 0 0 0 280.1152 260.096a25.6 25.6 0 0 0 14.0288 33.3312z" fill="#ffffff" p-id="10198"></path><path d="M410.6752 750.2336a25.6 25.6 0 0 0 25.6-25.6v-225.28a25.6 25.6 0 0 0-51.2 0v225.28a25.6 25.6 0 0 0 25.6 25.6zM616.6016 750.2336a25.6 25.6 0 0 0 25.6-25.6v-225.28a25.6 25.6 0 0 0-51.2 0v225.28a25.6 25.6 0 0 0 25.6 25.6z" fill="#ffffff" p-id="10199"></path></svg>