<?xml version="1.0" standalone="no"?><!DOCTYPE svg PUBLIC "-//W3C//DTD SVG 1.1//EN" "http://www.w3.org/Graphics/SVG/1.1/DTD/svg11.dtd"><svg t="1725717122875" class="icon" viewBox="0 0 1024 1024" version="1.1" xmlns="http://www.w3.org/2000/svg" p-id="7796" xmlns:xlink="http://www.w3.org/1999/xlink" width="128" height="128"><path d="M760.32 826.368c-6.656-6.656-13.312-9.216-22.528-9.216-9.216 0-15.872 2.048-22.528 9.216-6.656 4.608-9.216 13.312-9.216 22.528 0 9.216 2.048 15.872 9.216 22.528 6.656 6.656 13.312 9.216 22.528 9.216 9.216 0 15.872-2.048 22.528-9.216 6.656-6.656 9.216-13.312 9.216-22.528-0.512-9.216-2.56-15.872-9.216-22.528z m60.416-275.968c-19.968-17.92-45.056-27.136-76.288-27.136-35.84 0-62.976 11.264-82.944 33.792-15.872 17.92-24.576 40.448-27.136 65.024v2.048c0 4.608 2.048 11.264 4.608 13.312 4.608 4.608 9.216 6.656 15.872 6.656 11.264 0 19.968-9.216 19.968-19.968 2.048-17.92 6.656-31.232 15.872-42.496 11.264-15.872 27.136-22.528 51.712-22.528 19.968 0 35.84 4.608 47.104 15.872 11.264 11.264 15.872 24.576 15.872 42.496 0 11.264-4.608 24.576-13.312 35.84-2.048 2.048-6.656 6.656-19.968 22.528-22.528 19.968-38.4 38.4-45.056 53.76-6.656 11.264-9.216 27.136-9.216 40.448 0 11.264 9.216 19.968 19.968 19.968h2.048c11.264 0 19.968-9.216 19.968-19.968 0-11.264 2.048-22.528 9.216-31.232 4.608-6.656 11.264-15.872 22.528-24.576 19.968-17.92 33.792-31.232 38.4-38.4 13.312-17.92 19.968-35.84 19.968-58.368-2.048-24.576-11.264-49.152-29.184-67.072z m0 0M681.472 327.68c0-100.864-82.944-184.32-184.32-184.32-100.864 0-184.32 82.944-184.32 184.32 0 67.584 35.84 128 94.208 161.792-136.192 42.496-232.96 173.056-232.96 318.976 0 11.264 9.216 19.968 19.968 19.968 11.264 0 19.968-9.216 19.968-19.968 0-161.792 132.608-293.888 293.888-293.888 17.92 0 35.84 2.048 51.712 4.608 13.312 4.608 29.184-6.656 29.184-19.968 0-2.048 0-6.656-2.048-9.216 58.88-31.744 94.72-94.72 94.72-162.304z m-37.888 0c0 80.896-65.024 143.872-143.872 143.872S353.792 408.576 353.792 327.68c0-80.384 65.024-143.36 143.36-143.36 78.848 0 146.432 65.024 146.432 143.36z m0 0" fill="#8186FF" p-id="7797"></path></svg>